<?xml version="1.0" encoding="UTF-8"?>
<svg id="Camada_2" data-name="Camada 2" xmlns="http://www.w3.org/2000/svg" viewBox="0 0 289.11 345.38">
  <g id="Camada_1-2" data-name="Camada 1">
    <g>
      <path d="M28.19,316.38v28.56h-6v-9.79c0-2.45.06-4.66.18-6.61.05-.69.1-1.37.17-2.06l-7.16,11.12h-2.69l-7.02-11.03c.06.58.1,1.16.14,1.75.12,1.92.19,4.2.19,6.84v9.79H0v-28.56h5.59l8.57,13.94,8.69-13.94h5.34Z"/>
      <path d="M54.42,333.63c.05-1.55-.16-2.98-.65-4.29-.49-1.31-1.19-2.44-2.1-3.41-.91-.96-1.99-1.72-3.24-2.24-1.26-.53-2.62-.8-4.08-.8-1.58,0-3.04.28-4.39.84-1.34.56-2.51,1.35-3.48,2.36-.98,1.02-1.74,2.23-2.29,3.61-.54,1.39-.82,2.91-.82,4.57,0,2.15.49,4.05,1.47,5.71.98,1.66,2.34,2.97,4.08,3.92,1.74.95,3.78,1.43,6.12,1.43.98,0,1.97-.12,2.98-.37,1-.25,1.98-.6,2.93-1.08.95-.47,1.83-1.07,2.61-1.77l-2.77-3.88c-.9.74-1.74,1.26-2.53,1.55-.78.3-1.66.45-2.61.45-1.39,0-2.59-.27-3.61-.8-1.02-.53-1.81-1.27-2.37-2.22-.32-.54-.54-1.14-.68-1.79h15.39l.05-1.79ZM39.49,330.57c.43-.9,1.07-1.58,1.9-2.04.83-.46,1.84-.69,3.04-.69.82,0,1.55.16,2.2.49.65.32,1.19.78,1.61,1.39.42.6.66,1.26.72,1.99v.17h-9.91c.1-.47.25-.91.45-1.31Z"/>
      <path d="M72.04,345.34c-2.09,0-4.02-.36-5.77-1.08s-3.28-1.74-4.57-3.06c-1.29-1.32-2.29-2.88-3-4.69-.71-1.81-1.06-3.79-1.06-5.94s.37-4.03,1.1-5.81c.73-1.78,1.77-3.33,3.1-4.65,1.33-1.32,2.9-2.35,4.69-3.08s3.74-1.1,5.83-1.1c1.36,0,2.7.18,4.02.55,1.32.37,2.53.9,3.63,1.61,1.1.71,2.05,1.55,2.84,2.53l-3.83,4.24c-.65-.65-1.33-1.22-2.02-1.69-.69-.48-1.43-.84-2.2-1.1-.78-.26-1.6-.39-2.47-.39-1.17,0-2.26.22-3.28.65-1.02.44-1.91,1.04-2.67,1.81-.76.78-1.37,1.71-1.82,2.82-.45,1.1-.67,2.32-.67,3.65s.22,2.59.65,3.69c.43,1.1,1.05,2.04,1.84,2.81.79.78,1.73,1.37,2.84,1.8,1.1.42,2.32.63,3.65.63.87,0,1.71-.12,2.53-.37.82-.24,1.57-.58,2.26-1.02.69-.43,1.31-.94,1.86-1.51l2.98,4.77c-.65.73-1.53,1.4-2.63,2-1.1.6-2.33,1.07-3.69,1.41-1.36.34-2.73.51-4.12.51Z"/>
      <path d="M96.84,345.34c-2.2,0-4.17-.48-5.89-1.45-1.73-.96-3.09-2.29-4.08-3.98-.99-1.69-1.49-3.62-1.49-5.79s.5-4.1,1.49-5.77c.99-1.67,2.35-3,4.08-3.98,1.73-.98,3.69-1.47,5.89-1.47s4.13.49,5.85,1.47c1.73.98,3.08,2.3,4.06,3.98s1.47,3.6,1.47,5.77-.49,4.11-1.47,5.79c-.98,1.69-2.33,3.01-4.06,3.98-1.73.97-3.68,1.45-5.85,1.45ZM96.84,340.28c1.06,0,2.01-.26,2.86-.8.84-.53,1.5-1.26,1.98-2.2s.71-1.99.71-3.16-.24-2.26-.71-3.2c-.48-.94-1.14-1.67-1.98-2.2-.84-.53-1.8-.8-2.86-.8s-2.05.27-2.9.82c-.84.54-1.51,1.28-2,2.2-.49.92-.72,1.99-.69,3.18-.03,1.17.2,2.22.69,3.16.49.94,1.16,1.67,2,2.2.84.53,1.81.8,2.9.8Z"/>
      <path d="M132.42,331.71v13.22h-5.79v-12.77c0-.98-.14-1.8-.41-2.45-.27-.65-.69-1.14-1.24-1.45-.56-.31-1.25-.44-2.07-.39-.65,0-1.26.1-1.81.3-.56.21-1.04.5-1.42.88-.4.38-.71.82-.94,1.3-.23.49-.35,1.02-.35,1.59v12.98h-5.79v-21.58h5.54l.11,2.83c.16-.21.34-.41.52-.61.78-.8,1.71-1.44,2.8-1.94s2.23-.73,3.43-.73c1.63,0,3,.32,4.1.98,1.1.65,1.93,1.64,2.49,2.96.56,1.31.84,2.94.84,4.87Z"/>
      <polygon points="150.24 323.35 150.24 328.53 145.84 328.53 145.84 344.93 140.04 344.93 140.04 328.53 136.01 328.53 136.01 323.35 140.04 323.35 140.04 317.88 145.84 317.88 145.84 323.35 150.24 323.35"/>
      <path d="M168.6,323.31l-1.55,6.36c-.32-.16-.72-.3-1.19-.43-.46-.12-.94-.18-1.42-.18-.65,0-1.26.12-1.81.34-.56.23-1.04.56-1.45.98-.41.42-.73.91-.96,1.49-.23.57-.35,1.19-.35,1.87v11.18h-5.83v-21.58h5.59l.1,3.49c.21-.36.45-.69.71-1.02.74-.91,1.6-1.63,2.59-2.14,1-.51,2.03-.77,3.12-.77.47,0,.91.04,1.35.12.44.08.8.17,1.1.28Z"/>
      <path d="M181.05,345.34c-2.2,0-4.17-.48-5.89-1.45-1.73-.96-3.09-2.29-4.08-3.98-.99-1.69-1.49-3.62-1.49-5.79s.5-4.1,1.49-5.77,2.35-3,4.08-3.98,3.69-1.47,5.89-1.47,4.13.49,5.85,1.47c1.73.98,3.08,2.3,4.06,3.98.98,1.67,1.47,3.6,1.47,5.77s-.49,4.11-1.47,5.79c-.98,1.69-2.33,3.01-4.06,3.98-1.73.97-3.68,1.45-5.85,1.45ZM181.05,340.28c1.06,0,2.01-.26,2.86-.8s1.5-1.26,1.98-2.2c.48-.94.71-1.99.71-3.16s-.24-2.26-.71-3.2c-.48-.94-1.14-1.67-1.98-2.2-.84-.53-1.79-.8-2.86-.8s-2.05.27-2.9.82c-.84.54-1.51,1.28-2,2.2s-.72,1.99-.69,3.18c-.03,1.17.2,2.22.69,3.16s1.16,1.67,2,2.2c.84.53,1.81.8,2.9.8Z"/>
      <path d="M196.83,344.93v-30.19h5.79v30.19h-5.79Z"/>
      <path d="M223.51,323.35v2.83c-.41-.56-.89-1.07-1.44-1.52-.67-.54-1.44-.98-2.32-1.29-.89-.31-1.86-.47-2.92-.47-1.88,0-3.55.48-5.02,1.44-1.47.96-2.63,2.29-3.48,3.96-.86,1.68-1.29,3.6-1.29,5.78s.42,4.11,1.26,5.79c.85,1.69,1.99,3.02,3.43,4,1.44.98,3.06,1.47,4.85,1.47,1.01,0,1.96-.16,2.86-.47.9-.31,1.71-.73,2.43-1.26.6-.45,1.13-.95,1.57-1.5v2.82h5.83v-21.58h-5.76ZM222.92,337.36c-.45.94-1.08,1.66-1.9,2.18-.82.52-1.77.78-2.86.78s-1.99-.26-2.8-.78c-.8-.52-1.43-1.24-1.89-2.18-.47-.94-.7-2.03-.7-3.28s.23-2.3.7-3.22c.46-.93,1.09-1.65,1.89-2.18.8-.53,1.74-.8,2.8-.8s2.04.27,2.86.8c.82.53,1.45,1.26,1.9,2.18.45.93.67,2,.67,3.22s-.23,2.34-.67,3.28Z"/>
      <path d="M236.4,345.38c-1.06,0-1.88-.3-2.45-.9-.57-.6-.86-1.46-.86-2.57,0-1.01.31-1.83.92-2.47.61-.64,1.41-.96,2.39-.96,1.03,0,1.84.3,2.41.9s.86,1.44.86,2.53-.3,1.87-.9,2.51-1.39.96-2.37.96Z"/>
      <path d="M259.05,316.38h-5.47l-11.18,28.56h6.04l2.26-6h10.96l2.24,6h6.29l-11.14-28.56ZM252.56,333.99l1.63-4.33c.22-.62.45-1.26.69-1.92.25-.65.48-1.32.69-2.02.22-.69.42-1.36.63-2.01.2.63.41,1.3.63,1.99.25.76.49,1.48.72,2.16.23.68.43,1.24.59,1.68l1.66,4.44h-7.25Z"/>
      <path d="M273.45,344.93v-5.26h4.77v-18.03h-4.77v-5.26h15.67v5.26h-4.77v18.03h4.77v5.26h-15.67Z"/>
      <path d="M144.06,0C66.52,0,3.65,62.87,3.65,140.42s62.87,140.42,140.42,140.42,140.42-62.87,140.42-140.42S221.61,0,144.06,0ZM144.06,269.69c-71.28,0-129.27-57.99-129.27-129.27S72.78,11.14,144.06,11.14s129.27,57.99,129.27,129.27-57.99,129.27-129.27,129.27ZM144.06,24.09c-64.15,0-116.32,52.18-116.32,116.32s52.18,116.32,116.32,116.32,116.32-52.18,116.32-116.32S208.21,24.09,144.06,24.09ZM164.66,168.47c-7.74,11.09-13.31,23.71-16.22,37.19l-4.37,20.23-4.37-20.23c-5.83-26.97-22.24-50.48-45.55-65.25,11.66-7.38,21.58-16.95,29.33-28.05,7.74-11.09,13.31-23.71,16.22-37.19l4.37-20.23,4.37,20.23c5.83,26.97,22.24,50.48,45.55,65.25-11.66,7.38-21.58,16.95-29.33,28.05Z"/>
    </g>
  </g>
</svg>