<svg width="281" height="281" viewBox="0 0 281 281" fill="none" xmlns="http://www.w3.org/2000/svg">
<g clip-path="url(#clip0_1167_5)">
<path d="M140.42 0C62.87 0 0 62.87 0 140.42C0 217.97 62.87 280.84 140.42 280.84C217.97 280.84 280.84 217.97 280.84 140.42C280.84 62.87 217.97 0 140.42 0ZM140.42 269.69C69.14 269.69 11.15 211.7 11.15 140.42C11.15 69.14 69.14 11.14 140.42 11.14C211.7 11.14 269.69 69.13 269.69 140.41C269.69 211.69 211.7 269.68 140.42 269.68V269.69ZM140.42 24.09C76.27 24.09 24.1 76.27 24.1 140.41C24.1 204.55 76.28 256.73 140.42 256.73C204.56 256.73 256.74 204.55 256.74 140.41C256.74 76.27 204.56 24.09 140.42 24.09ZM161.01 168.47C153.27 179.56 147.7 192.18 144.79 205.66L140.42 225.89L136.05 205.66C130.22 178.69 113.81 155.18 90.5 140.41C102.16 133.03 112.08 123.46 119.83 112.36C127.57 101.27 133.14 88.65 136.05 75.17L140.42 54.94L144.79 75.17C150.62 102.14 167.03 125.65 190.34 140.42C178.68 147.8 168.76 157.37 161.01 168.47Z" fill="currentColor"/>
</g>
<defs>
<clipPath id="clip0_1167_5">
<rect width="280.84" height="280.84" fill="white"/>
</clipPath>
</defs>
</svg>
